<mxfile host="app.diagrams.net" modified="2023-02-20T07:51:31.608Z" agent="5.0 (X11; Linux x86_64) AppleWebKit/537.36 (KHTML, like Gecko) Chrome/102.0.0.0 Safari/537.36" etag="poU5AtRwbb8cyiUEmPne" version="20.8.20" type="github" pages="2">
  <diagram name="第 1 页" id="NNSasNFaefzjUW2hV5rl">
    <mxGraphModel dx="1434" dy="802" grid="1" gridSize="10" guides="1" tooltips="1" connect="1" arrows="1" fold="1" page="1" pageScale="1" pageWidth="850" pageHeight="1100" math="0" shadow="0">
      <root>
        <mxCell id="0" />
        <mxCell id="1" parent="0" />
        <mxCell id="Hbv2hejrG5S1lCIwx9di-1" value="" style="rounded=0;whiteSpace=wrap;html=1;fillColor=none;" vertex="1" parent="1">
          <mxGeometry x="16" y="160" width="160" height="240" as="geometry" />
        </mxCell>
        <mxCell id="Hbv2hejrG5S1lCIwx9di-18" style="edgeStyle=orthogonalEdgeStyle;rounded=0;orthogonalLoop=1;jettySize=auto;html=1;exitX=1;exitY=0.5;exitDx=0;exitDy=0;entryX=0;entryY=0.25;entryDx=0;entryDy=0;fillColor=#d5e8d4;strokeColor=#82b366;" edge="1" parent="1" source="Hbv2hejrG5S1lCIwx9di-2" target="Hbv2hejrG5S1lCIwx9di-5">
          <mxGeometry relative="1" as="geometry" />
        </mxCell>
        <mxCell id="Hbv2hejrG5S1lCIwx9di-2" value="Pull Request" style="rounded=0;whiteSpace=wrap;html=1;fillColor=none;" vertex="1" parent="1">
          <mxGeometry x="36" y="190" width="120" height="60" as="geometry" />
        </mxCell>
        <mxCell id="Hbv2hejrG5S1lCIwx9di-19" style="edgeStyle=orthogonalEdgeStyle;rounded=0;orthogonalLoop=1;jettySize=auto;html=1;exitX=1;exitY=0.5;exitDx=0;exitDy=0;entryX=0;entryY=0.75;entryDx=0;entryDy=0;fillColor=#e1d5e7;strokeColor=#9673a6;" edge="1" parent="1" source="Hbv2hejrG5S1lCIwx9di-3" target="Hbv2hejrG5S1lCIwx9di-5">
          <mxGeometry relative="1" as="geometry" />
        </mxCell>
        <mxCell id="Hbv2hejrG5S1lCIwx9di-3" value="Manual Click" style="rounded=0;whiteSpace=wrap;html=1;fillColor=none;" vertex="1" parent="1">
          <mxGeometry x="36" y="310" width="120" height="60" as="geometry" />
        </mxCell>
        <mxCell id="Hbv2hejrG5S1lCIwx9di-4" value="" style="rounded=0;whiteSpace=wrap;html=1;fillColor=none;" vertex="1" parent="1">
          <mxGeometry x="631" y="160" width="160" height="240" as="geometry" />
        </mxCell>
        <mxCell id="Hbv2hejrG5S1lCIwx9di-20" style="edgeStyle=orthogonalEdgeStyle;rounded=0;orthogonalLoop=1;jettySize=auto;html=1;exitX=1;exitY=0.25;exitDx=0;exitDy=0;entryX=0;entryY=0.5;entryDx=0;entryDy=0;fillColor=#d5e8d4;strokeColor=#82b366;" edge="1" parent="1" source="Hbv2hejrG5S1lCIwx9di-5" target="Hbv2hejrG5S1lCIwx9di-12">
          <mxGeometry relative="1" as="geometry" />
        </mxCell>
        <mxCell id="Hbv2hejrG5S1lCIwx9di-21" style="edgeStyle=orthogonalEdgeStyle;rounded=0;orthogonalLoop=1;jettySize=auto;html=1;exitX=1;exitY=0.25;exitDx=0;exitDy=0;entryX=0;entryY=0.5;entryDx=0;entryDy=0;fillColor=#d5e8d4;strokeColor=#82b366;" edge="1" parent="1" source="Hbv2hejrG5S1lCIwx9di-5" target="Hbv2hejrG5S1lCIwx9di-15">
          <mxGeometry relative="1" as="geometry" />
        </mxCell>
        <mxCell id="Hbv2hejrG5S1lCIwx9di-22" style="edgeStyle=orthogonalEdgeStyle;rounded=0;orthogonalLoop=1;jettySize=auto;html=1;exitX=1;exitY=0.75;exitDx=0;exitDy=0;entryX=0;entryY=0.5;entryDx=0;entryDy=0;fillColor=#e1d5e7;strokeColor=#9673a6;" edge="1" parent="1" source="Hbv2hejrG5S1lCIwx9di-5" target="Hbv2hejrG5S1lCIwx9di-16">
          <mxGeometry relative="1" as="geometry" />
        </mxCell>
        <mxCell id="Hbv2hejrG5S1lCIwx9di-23" style="edgeStyle=orthogonalEdgeStyle;rounded=0;orthogonalLoop=1;jettySize=auto;html=1;exitX=1;exitY=0.75;exitDx=0;exitDy=0;entryX=0;entryY=0.5;entryDx=0;entryDy=0;fillColor=#e1d5e7;strokeColor=#9673a6;" edge="1" parent="1" source="Hbv2hejrG5S1lCIwx9di-5" target="Hbv2hejrG5S1lCIwx9di-17">
          <mxGeometry relative="1" as="geometry" />
        </mxCell>
        <mxCell id="Hbv2hejrG5S1lCIwx9di-5" value="" style="rounded=0;whiteSpace=wrap;html=1;fillColor=none;" vertex="1" parent="1">
          <mxGeometry x="220" y="160" width="360" height="240" as="geometry" />
        </mxCell>
        <mxCell id="Hbv2hejrG5S1lCIwx9di-6" value="Check Files Change" style="rounded=0;whiteSpace=wrap;html=1;fillColor=none;" vertex="1" parent="1">
          <mxGeometry x="247" y="190" width="120" height="32" as="geometry" />
        </mxCell>
        <mxCell id="Hbv2hejrG5S1lCIwx9di-7" value="GITS CI" style="rounded=0;whiteSpace=wrap;html=1;fillColor=none;" vertex="1" parent="1">
          <mxGeometry x="247" y="259" width="120" height="32" as="geometry" />
        </mxCell>
        <mxCell id="Hbv2hejrG5S1lCIwx9di-8" value="Infrastructure CI" style="rounded=0;whiteSpace=wrap;html=1;fillColor=none;" vertex="1" parent="1">
          <mxGeometry x="247" y="328" width="120" height="32" as="geometry" />
        </mxCell>
        <mxCell id="Hbv2hejrG5S1lCIwx9di-9" value="Infrastructure CD" style="rounded=0;whiteSpace=wrap;html=1;fillColor=none;" vertex="1" parent="1">
          <mxGeometry x="433" y="328" width="120" height="32" as="geometry" />
        </mxCell>
        <mxCell id="Hbv2hejrG5S1lCIwx9di-10" value="AppConfig CD" style="rounded=0;whiteSpace=wrap;html=1;fillColor=none;" vertex="1" parent="1">
          <mxGeometry x="433" y="259" width="120" height="32" as="geometry" />
        </mxCell>
        <mxCell id="Hbv2hejrG5S1lCIwx9di-11" value="GITS CD" style="rounded=0;whiteSpace=wrap;html=1;fillColor=none;" vertex="1" parent="1">
          <mxGeometry x="433" y="190" width="120" height="32" as="geometry" />
        </mxCell>
        <mxCell id="Hbv2hejrG5S1lCIwx9di-12" value="Prod ENV" style="rounded=0;whiteSpace=wrap;html=1;fillColor=none;" vertex="1" parent="1">
          <mxGeometry x="651" y="183" width="120" height="30" as="geometry" />
        </mxCell>
        <mxCell id="Hbv2hejrG5S1lCIwx9di-15" value="Staging ENV" style="rounded=0;whiteSpace=wrap;html=1;fillColor=none;" vertex="1" parent="1">
          <mxGeometry x="651" y="236" width="120" height="30" as="geometry" />
        </mxCell>
        <mxCell id="Hbv2hejrG5S1lCIwx9di-16" value="QA ENV" style="rounded=0;whiteSpace=wrap;html=1;fillColor=none;" vertex="1" parent="1">
          <mxGeometry x="651" y="288" width="120" height="30" as="geometry" />
        </mxCell>
        <mxCell id="Hbv2hejrG5S1lCIwx9di-17" value="Dev ENV" style="rounded=0;whiteSpace=wrap;html=1;fillColor=none;" vertex="1" parent="1">
          <mxGeometry x="651" y="341" width="120" height="30" as="geometry" />
        </mxCell>
        <mxCell id="Hbv2hejrG5S1lCIwx9di-24" value="" style="rounded=0;whiteSpace=wrap;html=1;fillColor=none;dashed=1;dashPattern=1 4;" vertex="1" parent="1">
          <mxGeometry x="10" y="130" width="800" height="300" as="geometry" />
        </mxCell>
        <mxCell id="Hbv2hejrG5S1lCIwx9di-26" value="GITS CICD" style="text;html=1;align=center;verticalAlign=middle;resizable=0;points=[];autosize=1;strokeColor=none;fillColor=none;" vertex="1" parent="1">
          <mxGeometry x="10" y="125" width="80" height="30" as="geometry" />
        </mxCell>
      </root>
    </mxGraphModel>
  </diagram>
  <diagram id="ssoooeTiysPLgmdNxrOm" name="第 2 页">
    <mxGraphModel dx="1434" dy="802" grid="1" gridSize="10" guides="1" tooltips="1" connect="1" arrows="1" fold="1" page="1" pageScale="1" pageWidth="850" pageHeight="1100" math="0" shadow="0">
      <root>
        <mxCell id="0" />
        <mxCell id="1" parent="0" />
        <mxCell id="PDaeFjljV9xxRvs4MSL0-9" style="edgeStyle=orthogonalEdgeStyle;rounded=0;orthogonalLoop=1;jettySize=auto;html=1;entryX=0.5;entryY=0;entryDx=0;entryDy=0;" edge="1" parent="1" source="PDaeFjljV9xxRvs4MSL0-1" target="PDaeFjljV9xxRvs4MSL0-2">
          <mxGeometry relative="1" as="geometry" />
        </mxCell>
        <mxCell id="PDaeFjljV9xxRvs4MSL0-1" value="Configure environment" style="rounded=0;whiteSpace=wrap;html=1;fillColor=none;strokeColor=#D1EAFF;strokeWidth=2;" vertex="1" parent="1">
          <mxGeometry x="60" y="120" width="200" height="40" as="geometry" />
        </mxCell>
        <mxCell id="PDaeFjljV9xxRvs4MSL0-10" style="edgeStyle=orthogonalEdgeStyle;rounded=0;orthogonalLoop=1;jettySize=auto;html=1;exitX=0.5;exitY=1;exitDx=0;exitDy=0;entryX=0.5;entryY=0;entryDx=0;entryDy=0;" edge="1" parent="1" source="PDaeFjljV9xxRvs4MSL0-2" target="PDaeFjljV9xxRvs4MSL0-3">
          <mxGeometry relative="1" as="geometry" />
        </mxCell>
        <mxCell id="PDaeFjljV9xxRvs4MSL0-2" value="Configure CICD jobs" style="rounded=0;whiteSpace=wrap;html=1;fillColor=none;strokeColor=#D1EAFF;strokeWidth=2;" vertex="1" parent="1">
          <mxGeometry x="60" y="197" width="200" height="40" as="geometry" />
        </mxCell>
        <mxCell id="PDaeFjljV9xxRvs4MSL0-11" style="edgeStyle=orthogonalEdgeStyle;rounded=0;orthogonalLoop=1;jettySize=auto;html=1;exitX=0.5;exitY=1;exitDx=0;exitDy=0;entryX=0.5;entryY=0;entryDx=0;entryDy=0;" edge="1" parent="1" source="PDaeFjljV9xxRvs4MSL0-3" target="PDaeFjljV9xxRvs4MSL0-4">
          <mxGeometry relative="1" as="geometry" />
        </mxCell>
        <mxCell id="PDaeFjljV9xxRvs4MSL0-3" value="Integrate CICD jobs" style="rounded=0;whiteSpace=wrap;html=1;fillColor=none;strokeColor=#D1EAFF;strokeWidth=2;" vertex="1" parent="1">
          <mxGeometry x="60" y="273" width="200" height="40" as="geometry" />
        </mxCell>
        <mxCell id="PDaeFjljV9xxRvs4MSL0-12" style="edgeStyle=orthogonalEdgeStyle;rounded=0;orthogonalLoop=1;jettySize=auto;html=1;exitX=0.5;exitY=1;exitDx=0;exitDy=0;entryX=0.5;entryY=0;entryDx=0;entryDy=0;" edge="1" parent="1" source="PDaeFjljV9xxRvs4MSL0-4" target="PDaeFjljV9xxRvs4MSL0-5">
          <mxGeometry relative="1" as="geometry" />
        </mxCell>
        <mxCell id="PDaeFjljV9xxRvs4MSL0-4" value="Write scripts for workflow" style="rounded=0;whiteSpace=wrap;html=1;fillColor=none;strokeColor=#D1EAFF;strokeWidth=2;" vertex="1" parent="1">
          <mxGeometry x="60" y="350" width="200" height="40" as="geometry" />
        </mxCell>
        <mxCell id="PDaeFjljV9xxRvs4MSL0-13" style="edgeStyle=orthogonalEdgeStyle;rounded=0;orthogonalLoop=1;jettySize=auto;html=1;exitX=0.5;exitY=1;exitDx=0;exitDy=0;entryX=0.5;entryY=0;entryDx=0;entryDy=0;" edge="1" parent="1" source="PDaeFjljV9xxRvs4MSL0-5" target="PDaeFjljV9xxRvs4MSL0-6">
          <mxGeometry relative="1" as="geometry" />
        </mxCell>
        <mxCell id="PDaeFjljV9xxRvs4MSL0-5" value="Trigger workflow auto / manual" style="rounded=0;whiteSpace=wrap;html=1;fillColor=none;strokeColor=#D1EAFF;strokeWidth=2;" vertex="1" parent="1">
          <mxGeometry x="60" y="427" width="200" height="40" as="geometry" />
        </mxCell>
        <mxCell id="PDaeFjljV9xxRvs4MSL0-14" style="edgeStyle=orthogonalEdgeStyle;rounded=0;orthogonalLoop=1;jettySize=auto;html=1;exitX=0.5;exitY=1;exitDx=0;exitDy=0;entryX=0.5;entryY=0;entryDx=0;entryDy=0;" edge="1" parent="1" source="PDaeFjljV9xxRvs4MSL0-6" target="PDaeFjljV9xxRvs4MSL0-7">
          <mxGeometry relative="1" as="geometry" />
        </mxCell>
        <mxCell id="PDaeFjljV9xxRvs4MSL0-6" value="Generate report of CI / CD" style="rounded=0;whiteSpace=wrap;html=1;fillColor=none;strokeColor=#D1EAFF;strokeWidth=2;" vertex="1" parent="1">
          <mxGeometry x="60" y="503" width="200" height="40" as="geometry" />
        </mxCell>
        <mxCell id="PDaeFjljV9xxRvs4MSL0-7" value="Deploy code to AWS" style="rounded=0;whiteSpace=wrap;html=1;fillColor=none;strokeColor=#D1EAFF;strokeWidth=2;" vertex="1" parent="1">
          <mxGeometry x="60" y="580" width="200" height="40" as="geometry" />
        </mxCell>
        <mxCell id="PDaeFjljV9xxRvs4MSL0-15" value="" style="rounded=0;whiteSpace=wrap;html=1;strokeColor=#D1EAFF;strokeWidth=2;fillColor=none;dashed=1;dashPattern=1 1;" vertex="1" parent="1">
          <mxGeometry x="35" y="100" width="260" height="550" as="geometry" />
        </mxCell>
      </root>
    </mxGraphModel>
  </diagram>
</mxfile>
